<svg xmlns="http://www.w3.org/2000/svg" xmlns:xlink="http://www.w3.org/1999/xlink" xml:space="preserve" version="1.1" style="shape-rendering:geometricPrecision;text-rendering:geometricPrecision;image-rendering:optimizeQuality;" viewBox="0 0 333.33 416.66249999999997" x="0px" y="0px" fill-rule="evenodd" clip-rule="evenodd"><defs>
 <linearGradient id="neonPinkLimeGreen" x1="0%" y1="0%" x2="100%" y2="100%">
      <stop offset="0%" style="stop-color:#FF6EC7; stop-opacity:1" />
      <stop offset="100%" style="stop-color:#32CD32; stop-opacity:1" />
    </linearGradient>
   
 </defs><g>
  <path fill="url(#neonPinkLimeGreen)"  d="M121.74 64.33l44.93 44.93 44.93 -44.93c-28.43,-12.51 -61.43,-12.51 -89.85,0zm-56.29 26.34l-5.72 -26.1 157.47 157.47 -10.19 10.19 -141.56 -141.56zm101.22 40.81l-71.72 -71.72c-0.54,-0.54 -1.23,-0.87 -1.93,-0.98l-38.3 -8.39c-2.58,-0.68 -4.93,1.67 -4.25,4.25l8.39 38.3c0.11,0.7 0.43,1.39 0.98,1.93l72.05 72.05 -35.78 35.12c-1.36,-1.1 -3.37,-1.02 -4.64,0.25l-8.59 8.59 -3.26 -3.26c-1.36,-1.35 -3.56,-1.35 -4.91,0l-11.05 11.05c-1.35,1.35 -1.35,3.56 0,4.91l13.31 13.31 -22.52 22.51c-12.52,12.52 6.46,32.38 19.42,19.42l22.51 -22.52 13.31 13.31c1.36,1.36 3.56,1.36 4.91,0l11.05 -11.05c1.36,-1.36 1.36,-3.56 0,-4.91l-3.26 -3.26 8.59 -8.59c1.26,-1.27 1.35,-3.27 0.25,-4.63l35.78 -35.12 35.12 35.12c-1.1,1.36 -1.02,3.37 0.25,4.63l8.59 8.59 -3.27 3.26c-1.35,1.36 -1.35,3.56 0,4.91l11.05 11.05c1.35,1.36 3.56,1.36 4.91,0l13.31 -13.31 22.52 22.52c12.95,12.96 31.94,-6.9 19.42,-19.42l-22.51 -22.51 13.31 -13.31c1.35,-1.35 1.35,-3.56 0,-4.91l-11.05 -11.05c-1.35,-1.35 -3.56,-1.35 -4.91,0l-3.27 3.26 -8.59 -8.59c-1.27,-1.27 -3.28,-1.35 -4.64,-0.25l-35.44 -35.44 71.72 -71.72c0.54,-0.54 0.87,-1.22 0.98,-1.93l8.39 -38.3c0.68,-2.59 -1.67,-4.93 -4.25,-4.25l-38.3 8.39c-0.7,0.11 -1.39,0.44 -1.93,0.98l-71.72 71.72zm75.93 -66.1l26.1 -5.72 -86.92 86.92 -10.19 -10.19 71.01 -71.01zm-165.44 149.61c13.71,13.71 3.85,3.85 17.56,17.56l-6.14 6.14c-13.71,-13.71 -3.85,-3.85 -17.56,-17.56l6.14 -6.14zm4.72 26.81l5.18 5.18 -22.51 22.52c-6.41,6.41 -11.37,1.01 -5.18,-5.18l22.51 -22.51zm133.19 14.31c13.71,-13.71 3.85,-3.85 17.56,-17.56l6.14 6.14c-13.71,13.71 -3.85,3.85 -17.56,17.56l-6.14 -6.14zm26.81 -4.71l4.54 -4.54 22.52 22.52c6.19,6.19 1.87,10.94 -4.54,4.53l-22.52 -22.51zm-140.84 -44.46l35.76 -35.1 10.19 10.19 -35.76 35.1 -10.19 -10.19zm-13.24 8.85l6.14 -6.14c9.89,9.89 -3.78,-3.78 6.11,6.11l-6.14 6.14 -6.11 -6.11zm121.94 23.55c2.07,-2.07 4.01,-4.01 6.11,-6.11l6.14 6.14 -6.11 6.11 -6.14 -6.14zm-45.52 -122.72l-50.88 -50.88c-1.63,-1.7 -1.24,-4.5 0.93,-5.56 32.78,-16.17 71.77,-16.23 104.58,-0.12 2.3,0.91 2.95,3.91 1.17,5.69l-50.88 50.88c-1.35,1.35 -3.56,1.35 -4.91,0zm104.75 5.02l-44.95 44.95 19.39 19.39c3.59,0.77 6.97,2.59 9.57,5.19 9.47,-1.58 14.34,2.89 20.34,8.91 8.02,-25.69 6.5,-53.79 -4.35,-78.43zm-52.32 42.5l50.9 -50.91c1.7,-1.63 4.5,-1.24 5.56,0.93 14.37,29.06 16.13,63.1 4.95,93.5 -0.87,2.34 -3.89,3.06 -5.7,1.26 -5.4,-5.39 -10.7,-12.98 -19.38,-10.67 -1.21,0.41 -2.61,0.13 -3.57,-0.83 -2.52,-2.52 -4.31,-4.19 -8.03,-4.77 -0.78,-0.07 -1.53,-0.41 -2.13,-1l-22.6 -22.6c-1.35,-1.35 -1.35,-3.56 0,-4.91zm-16.46 109.13c-6.09,-6.09 -10.52,-10.93 -8.94,-20.38 -2.66,-2.94 -4.34,-5.63 -5.18,-9.56l-19.17 -19.17 -19.63 19.27c-0.78,3.59 -2.57,6.85 -5.17,9.46 1.6,9.44 -2.86,14.3 -8.94,20.38 21.69,6.81 45.33,6.8 67.03,0zm8.72 -1.08c1.91,1.72 1.32,4.92 -1.14,5.82 -26.43,9.74 -55.76,9.74 -82.18,-0 -2.34,-0.87 -3.06,-3.89 -1.26,-5.7 5.49,-5.49 13.16,-10.74 10.64,-19.59 -0.32,-1.17 -0.03,-2.46 0.88,-3.38 2.53,-2.54 4.2,-4.38 4.77,-8.13 0.11,-0.72 0.45,-1.41 1,-1.95l22.85 -22.44c1.35,-1.35 3.56,-1.35 4.91,0l22.36 22.36c0.51,0.52 0.87,1.19 0.98,1.96 0.56,3.82 2.2,5.63 4.79,8.19 0.86,0.86 1.24,2.15 0.88,3.41 -2.51,8.81 5.05,13.99 10.52,19.46zm-148.87 -72.12c6,-6 10.87,-10.5 20.33,-8.91 2.96,-2.69 5.73,-4.4 9.7,-5.21l19.49 -19.13 -45.18 -45.19c-10.83,24.61 -12.39,52.69 -4.35,78.43zm1.07 8.72c-1.72,1.91 -4.92,1.32 -5.82,-1.14 -11.19,-30.43 -9.41,-64.3 4.82,-93.25 0.91,-2.29 3.91,-2.94 5.69,-1.17l51.15 51.15c1.35,1.39 1.33,3.59 -0.03,4.93l-22.69 22.27c-0.52,0.54 -1.22,0.93 -2.03,1.04 -3.83,0.53 -5.72,2.24 -8.27,4.8 -0.86,0.86 -2.15,1.24 -3.41,0.88 -8.77,-2.5 -13.98,5.05 -19.42,10.49z"/></g></svg>